# xmcd CD database file
# Copyright (C) 1993-1996 Ti Kan
#
# Track frame offsets:
#	150
#	20882
#	45412
#	78420
#	93207
#	116842
#	132625
#	157132
#	177787
#	201185
#	217037
#	227062
#	240555
#	257112
#	295255
#	307487
#
# Disc length: 4392 seconds
#
# Revision: 1
# Processed by: cddbd v1.4b41PL1 Copyright (c) Steve Scherf et al.
# Submitted via: xmcd 2.0
#
DISCID=f1112610
DTITLE=Various Artist - Blues Masters Volume 9: Postmodern Blues
DYEAR=1900
DGENRE=
TTITLE0=Earl Hooker - Wah Wah Blues
TTITLE1=B.B. King - The Thrill Is Gone
TTITLE2=Albert King - I'll Play The Blues For You, PTS. I and II
TTITLE3=Bobby Bland - I Wouldn't Treat A Dog (The Way You Treated Me)
TTITLE4=Latimore - Let's Straighten It Out
TTITLE5=Magic Slim and The Teardrops - Wonder Why
TTITLE6=Son Seals - Telephone Angel (aka You're On My Mind)
TTITLE7=Koko Taylor - I'm A Woman
TTITLE8=Albert Collins - Master Charge
TTITLE9=The Robert Cray Band - Phone Booth
TTITLE10=Delbert and Glen - ``B'' Movie Box Car Blues
TTITLE11=The Fabulous Thunderbirds - She's Tuff
TTITLE12=Stevie Ray Vaughan and Double Trouble - Pride And Joy
TTITLE13=George Thorogood and The Destroyers - One Bourbon, One Scotch, One
TTITLE13=Beer
TTITLE14=The James Harman Band - Jump My Baby
TTITLE15=Johnny Winter - Mojo Boogie (aka The Mojo)
EXTD=
EXTT0=
EXTT1=
EXTT2=
EXTT3=
EXTT4=
EXTT5=
EXTT6=
EXTT7=
EXTT8=
EXTT9=
EXTT10=
EXTT11=
EXTT12=
EXTT13=
EXTT14=
EXTT15=
PLAYORDER=
